<?xml version="1.0" encoding="UTF-8" standalone="no"?>
<!DOCTYPE svg PUBLIC "-//W3C//DTD SVG 1.1//EN"
 "http://www.w3.org/Graphics/SVG/1.1/DTD/svg11.dtd">
<!-- Generated by graphviz version 2.40.1 (20161225.0304)
 -->
<!-- Title: G Pages: 1 -->
<svg width="507pt" height="924pt"
 viewBox="0.00 0.00 507.39 924.00" xmlns="http://www.w3.org/2000/svg" xmlns:xlink="http://www.w3.org/1999/xlink">
<g id="graph0" class="graph" transform="scale(1 1) rotate(0) translate(4 920)">
<title>G</title>
<polygon fill="#ffffff" stroke="transparent" points="-4,4 -4,-920 503.391,-920 503.391,4 -4,4"/>
<g id="clust1" class="cluster">
<title>cluster_Global</title>
<path fill="none" stroke="#c0c0c0" d="M161.391,-8C161.391,-8 479.391,-8 479.391,-8 485.391,-8 491.391,-14 491.391,-20 491.391,-20 491.391,-896 491.391,-896 491.391,-902 485.391,-908 479.391,-908 479.391,-908 161.391,-908 161.391,-908 155.391,-908 149.391,-902 149.391,-896 149.391,-896 149.391,-20 149.391,-20 149.391,-14 155.391,-8 161.391,-8"/>
<text text-anchor="middle" x="320.391" y="-895.2" font-family="Times,serif" font-size="11.00" fill="#c0c0c0">Global</text>
</g>
<g id="clust2" class="cluster">
<title>cluster_\Pablotron</title>
<path fill="none" stroke="#c0c0c0" d="M169.391,-16C169.391,-16 471.391,-16 471.391,-16 477.391,-16 483.391,-22 483.391,-28 483.391,-28 483.391,-868 483.391,-868 483.391,-874 477.391,-880 471.391,-880 471.391,-880 169.391,-880 169.391,-880 163.391,-880 157.391,-874 157.391,-868 157.391,-868 157.391,-28 157.391,-28 157.391,-22 163.391,-16 169.391,-16"/>
<text text-anchor="middle" x="320.391" y="-867.2" font-family="Times,serif" font-size="11.00" fill="#c0c0c0">Pablotron</text>
</g>
<g id="clust3" class="cluster">
<title>cluster_\Pablotron\ZipStream</title>
<path fill="none" stroke="#c0c0c0" d="M177.391,-24C177.391,-24 463.391,-24 463.391,-24 469.391,-24 475.391,-30 475.391,-36 475.391,-36 475.391,-840 475.391,-840 475.391,-846 469.391,-852 463.391,-852 463.391,-852 177.391,-852 177.391,-852 171.391,-852 165.391,-846 165.391,-840 165.391,-840 165.391,-36 165.391,-36 165.391,-30 171.391,-24 177.391,-24"/>
<text text-anchor="middle" x="320.391" y="-839.2" font-family="Times,serif" font-size="11.00" fill="#c0c0c0">ZipStream</text>
</g>
<!-- \\Pablotron\\ZipStream\\Error -->
<g id="node1" class="node">
<title>\\Pablotron\\ZipStream\\Error</title>
<polygon fill="none" stroke="#000000" points="242.391,-716 188.391,-716 188.391,-680 242.391,-680 242.391,-716"/>
<text text-anchor="middle" x="215.391" y="-695.2" font-family="Courier,monospace" font-size="11.00" fill="#000000">Error</text>
</g>
<!-- \\Exception -->
<g id="node19" class="node">
<title>\\Exception</title>
<ellipse fill="none" stroke="#000000" cx="50.6955" cy="-698" rx="50.8918" ry="18"/>
<text text-anchor="middle" x="50.6955" y="-694.3" font-family="Times,serif" font-size="14.00" fill="#c0c0c0">xception</text>
</g>
<!-- \\Pablotron\\ZipStream\\Error&#45;&gt;\\Exception -->
<g id="edge1" class="edge">
<title>\\Pablotron\\ZipStream\\Error&#45;&gt;\\Exception</title>
<path fill="none" stroke="#000000" d="M188.1949,-698C167.4661,-698 138.1084,-698 111.8397,-698"/>
<polygon fill="none" stroke="#000000" points="111.5694,-694.5001 101.5694,-698 111.5693,-701.5001 111.5694,-694.5001"/>
</g>
<!-- \\Pablotron\\ZipStream\\CommentError -->
<g id="node2" class="node">
<title>\\Pablotron\\ZipStream\\CommentError</title>
<polygon fill="none" stroke="#000000" points="447.391,-824 349.391,-824 349.391,-788 447.391,-788 447.391,-824"/>
<text text-anchor="middle" x="398.391" y="-803.2" font-family="Courier,monospace" font-size="11.00" fill="#000000">CommentError</text>
</g>
<!-- \\Pablotron\\ZipStream\\CommentError&#45;&gt;\\Pablotron\\ZipStream\\Error -->
<g id="edge2" class="edge">
<title>\\Pablotron\\ZipStream\\CommentError&#45;&gt;\\Pablotron\\ZipStream\\Error</title>
<path fill="none" stroke="#000000" d="M349.0889,-788.4232C342.3503,-785.5275 335.6155,-782.3632 329.391,-779 299.2754,-762.7283 267.754,-739.8113 245.5095,-722.504"/>
<polygon fill="none" stroke="#000000" points="247.4839,-719.604 237.4606,-716.171 243.1554,-725.1053 247.4839,-719.604"/>
</g>
<!-- \\Pablotron\\ZipStream\\DeflateError -->
<g id="node3" class="node">
<title>\\Pablotron\\ZipStream\\DeflateError</title>
<polygon fill="none" stroke="#000000" points="447.391,-770 349.391,-770 349.391,-734 447.391,-734 447.391,-770"/>
<text text-anchor="middle" x="398.391" y="-749.2" font-family="Courier,monospace" font-size="11.00" fill="#000000">DeflateError</text>
</g>
<!-- \\Pablotron\\ZipStream\\DeflateError&#45;&gt;\\Pablotron\\ZipStream\\Error -->
<g id="edge3" class="edge">
<title>\\Pablotron\\ZipStream\\DeflateError&#45;&gt;\\Pablotron\\ZipStream\\Error</title>
<path fill="none" stroke="#000000" d="M349.3504,-737.529C318.7995,-728.514 280.1342,-717.1045 252.2053,-708.8632"/>
<polygon fill="none" stroke="#000000" points="253.0181,-705.4539 242.4363,-705.9806 251.0369,-712.1677 253.0181,-705.4539"/>
</g>
<!-- \\Pablotron\\ZipStream\\UnknownMethodError -->
<g id="node4" class="node">
<title>\\Pablotron\\ZipStream\\UnknownMethodError</title>
<polygon fill="none" stroke="#000000" points="467.391,-716 329.391,-716 329.391,-680 467.391,-680 467.391,-716"/>
<text text-anchor="middle" x="398.391" y="-695.2" font-family="Courier,monospace" font-size="11.00" fill="#000000">UnknownMethodError</text>
</g>
<!-- \\Pablotron\\ZipStream\\UnknownMethodError&#45;&gt;\\Pablotron\\ZipStream\\Error -->
<g id="edge4" class="edge">
<title>\\Pablotron\\ZipStream\\UnknownMethodError&#45;&gt;\\Pablotron\\ZipStream\\Error</title>
<path fill="none" stroke="#000000" d="M329.2066,-698C303.2859,-698 274.8206,-698 252.8412,-698"/>
<polygon fill="none" stroke="#000000" points="252.612,-694.5001 242.6119,-698 252.6119,-701.5001 252.612,-694.5001"/>
</g>
<!-- \\Pablotron\\ZipStream\\FileError -->
<g id="node5" class="node">
<title>\\Pablotron\\ZipStream\\FileError</title>
<polygon fill="none" stroke="#000000" points="436.891,-662 359.891,-662 359.891,-626 436.891,-626 436.891,-662"/>
<text text-anchor="middle" x="398.391" y="-641.2" font-family="Courier,monospace" font-size="11.00" fill="#000000">FileError</text>
</g>
<!-- \\Pablotron\\ZipStream\\FileError&#45;&gt;\\Pablotron\\ZipStream\\Error -->
<g id="edge5" class="edge">
<title>\\Pablotron\\ZipStream\\FileError&#45;&gt;\\Pablotron\\ZipStream\\Error</title>
<path fill="none" stroke="#000000" d="M359.5814,-655.452C327.8663,-664.8106 283.3395,-677.9496 252.1842,-687.143"/>
<polygon fill="none" stroke="#000000" points="251.1724,-683.7923 242.5719,-689.9794 253.1536,-690.5061 251.1724,-683.7923"/>
</g>
<!-- \\Pablotron\\ZipStream\\PathError -->
<g id="node6" class="node">
<title>\\Pablotron\\ZipStream\\PathError</title>
<polygon fill="none" stroke="#000000" points="436.891,-608 359.891,-608 359.891,-572 436.891,-572 436.891,-608"/>
<text text-anchor="middle" x="398.391" y="-587.2" font-family="Courier,monospace" font-size="11.00" fill="#000000">PathError</text>
</g>
<!-- \\Pablotron\\ZipStream\\PathError&#45;&gt;\\Pablotron\\ZipStream\\Error -->
<g id="edge6" class="edge">
<title>\\Pablotron\\ZipStream\\PathError&#45;&gt;\\Pablotron\\ZipStream\\Error</title>
<path fill="none" stroke="#000000" d="M359.6768,-603.2307C349.5944,-607.1909 338.8976,-611.8635 329.391,-617 299.2754,-633.2717 267.754,-656.1887 245.5095,-673.496"/>
<polygon fill="none" stroke="#000000" points="243.1554,-670.8947 237.4606,-679.829 247.4839,-676.396 243.1554,-670.8947"/>
</g>
<!-- \\Pablotron\\ZipStream\\Methods -->
<g id="node7" class="node">
<title>\\Pablotron\\ZipStream\\Methods</title>
<polygon fill="none" stroke="#000000" points="430.391,-554 366.391,-554 366.391,-518 430.391,-518 430.391,-554"/>
<text text-anchor="middle" x="398.391" y="-533.2" font-family="Courier,monospace" font-size="11.00" fill="#000000">Methods</text>
</g>
<!-- \\Pablotron\\ZipStream\\HTTPResponseWriter -->
<g id="node8" class="node">
<title>\\Pablotron\\ZipStream\\HTTPResponseWriter</title>
<polygon fill="none" stroke="#000000" points="467.391,-500 329.391,-500 329.391,-464 467.391,-464 467.391,-500"/>
<text text-anchor="middle" x="398.391" y="-479.2" font-family="Courier,monospace" font-size="11.00" fill="#000000">HTTPResponseWriter</text>
</g>
<!-- \\Pablotron\\ZipStream\\Writer -->
<g id="node18" class="node">
<title>\\Pablotron\\ZipStream\\Writer</title>
<polygon fill="none" stroke="#000000" points="243.891,-446 186.891,-446 186.891,-410 243.891,-410 243.891,-446"/>
<text text-anchor="middle" x="215.391" y="-425.2" font-family="Courier,monospace" font-size="11.00" fill="#000000">Writer</text>
</g>
<!-- \\Pablotron\\ZipStream\\HTTPResponseWriter&#45;&gt;\\Pablotron\\ZipStream\\Writer -->
<g id="edge7" class="edge">
<title>\\Pablotron\\ZipStream\\HTTPResponseWriter&#45;&gt;\\Pablotron\\ZipStream\\Writer</title>
<path fill="none" stroke="#000000" stroke-dasharray="1,5" d="M337.2002,-463.9437C309.7433,-455.8417 278.1815,-446.5283 254.0657,-439.4122"/>
<polygon fill="none" stroke="#000000" points="254.8017,-435.9802 244.2199,-436.5069 252.8205,-442.694 254.8017,-435.9802"/>
</g>
<!-- \\Pablotron\\ZipStream\\FileWriter -->
<g id="node9" class="node">
<title>\\Pablotron\\ZipStream\\FileWriter</title>
<polygon fill="none" stroke="#000000" points="440.391,-446 356.391,-446 356.391,-410 440.391,-410 440.391,-446"/>
<text text-anchor="middle" x="398.391" y="-425.2" font-family="Courier,monospace" font-size="11.00" fill="#000000">FileWriter</text>
</g>
<!-- \\Pablotron\\ZipStream\\FileWriter&#45;&gt;\\Pablotron\\ZipStream\\Writer -->
<g id="edge8" class="edge">
<title>\\Pablotron\\ZipStream\\FileWriter&#45;&gt;\\Pablotron\\ZipStream\\Writer</title>
<path fill="none" stroke="#000000" stroke-dasharray="1,5" d="M355.9472,-428C325.1564,-428 283.8434,-428 253.9829,-428"/>
<polygon fill="none" stroke="#000000" points="253.9345,-424.5001 243.9345,-428 253.9345,-431.5001 253.9345,-424.5001"/>
</g>
<!-- \\Pablotron\\ZipStream\\StreamWriter -->
<g id="node10" class="node">
<title>\\Pablotron\\ZipStream\\StreamWriter</title>
<polygon fill="none" stroke="#000000" points="447.391,-392 349.391,-392 349.391,-356 447.391,-356 447.391,-392"/>
<text text-anchor="middle" x="398.391" y="-371.2" font-family="Courier,monospace" font-size="11.00" fill="#000000">StreamWriter</text>
</g>
<!-- \\Pablotron\\ZipStream\\StreamWriter&#45;&gt;\\Pablotron\\ZipStream\\Writer -->
<g id="edge9" class="edge">
<title>\\Pablotron\\ZipStream\\StreamWriter&#45;&gt;\\Pablotron\\ZipStream\\Writer</title>
<path fill="none" stroke="#000000" stroke-dasharray="1,5" d="M349.3504,-388.471C319.3652,-397.3191 281.5634,-408.4737 253.7678,-416.6757"/>
<polygon fill="none" stroke="#000000" points="252.6136,-413.367 244.013,-419.5542 254.5948,-420.0808 252.6136,-413.367"/>
</g>
<!-- \\Pablotron\\ZipStream\\DateTime -->
<g id="node11" class="node">
<title>\\Pablotron\\ZipStream\\DateTime</title>
<polygon fill="none" stroke="#000000" points="433.891,-338 362.891,-338 362.891,-302 433.891,-302 433.891,-338"/>
<text text-anchor="middle" x="398.391" y="-317.2" font-family="Courier,monospace" font-size="11.00" fill="#000000">DateTime</text>
</g>
<!-- \\Pablotron\\ZipStream\\Hasher -->
<g id="node12" class="node">
<title>\\Pablotron\\ZipStream\\Hasher</title>
<polygon fill="none" stroke="#000000" points="426.891,-284 369.891,-284 369.891,-248 426.891,-248 426.891,-284"/>
<text text-anchor="middle" x="398.391" y="-263.2" font-family="Courier,monospace" font-size="11.00" fill="#000000">Hasher</text>
</g>
<!-- \\Pablotron\\ZipStream\\DataFilter -->
<g id="node13" class="node">
<title>\\Pablotron\\ZipStream\\DataFilter</title>
<polygon fill="none" stroke="#000000" points="257.391,-203 173.391,-203 173.391,-167 257.391,-167 257.391,-203"/>
<text text-anchor="start" x="181.391" y="-188.2" font-family="Courier,monospace" font-size="11.00" fill="#000000">«abstract»</text>
<text text-anchor="start" x="181.391" y="-176.2" font-family="Courier,monospace" font-size="11.00" fill="#000000">DataFilter</text>
</g>
<!-- \\Pablotron\\ZipStream\\StoreFilter -->
<g id="node14" class="node">
<title>\\Pablotron\\ZipStream\\StoreFilter</title>
<polygon fill="none" stroke="#000000" points="443.891,-230 352.891,-230 352.891,-194 443.891,-194 443.891,-230"/>
<text text-anchor="middle" x="398.391" y="-209.2" font-family="Courier,monospace" font-size="11.00" fill="#000000">StoreFilter</text>
</g>
<!-- \\Pablotron\\ZipStream\\StoreFilter&#45;&gt;\\Pablotron\\ZipStream\\DataFilter -->
<g id="edge10" class="edge">
<title>\\Pablotron\\ZipStream\\StoreFilter&#45;&gt;\\Pablotron\\ZipStream\\DataFilter</title>
<path fill="none" stroke="#000000" d="M352.6844,-205.2564C326.8693,-201.4476 294.5018,-196.6721 267.6789,-192.7146"/>
<polygon fill="none" stroke="#000000" points="268.0992,-189.2388 257.6954,-191.2416 267.0775,-196.1638 268.0992,-189.2388"/>
</g>
<!-- \\Pablotron\\ZipStream\\DeflateFilter -->
<g id="node15" class="node">
<title>\\Pablotron\\ZipStream\\DeflateFilter</title>
<polygon fill="none" stroke="#000000" points="450.391,-176 346.391,-176 346.391,-140 450.391,-140 450.391,-176"/>
<text text-anchor="middle" x="398.391" y="-155.2" font-family="Courier,monospace" font-size="11.00" fill="#000000">DeflateFilter</text>
</g>
<!-- \\Pablotron\\ZipStream\\DeflateFilter&#45;&gt;\\Pablotron\\ZipStream\\DataFilter -->
<g id="edge11" class="edge">
<title>\\Pablotron\\ZipStream\\DeflateFilter&#45;&gt;\\Pablotron\\ZipStream\\DataFilter</title>
<path fill="none" stroke="#000000" d="M345.9505,-165.7371C321.3681,-169.364 292.1551,-173.6741 267.6016,-177.2968"/>
<polygon fill="none" stroke="#000000" points="266.7731,-173.8811 257.391,-178.8033 267.7948,-180.8061 266.7731,-173.8811"/>
</g>
<!-- \\Pablotron\\ZipStream\\Entry -->
<g id="node16" class="node">
<title>\\Pablotron\\ZipStream\\Entry</title>
<polygon fill="none" stroke="#000000" points="425.391,-122 371.391,-122 371.391,-86 425.391,-86 425.391,-122"/>
<text text-anchor="middle" x="398.391" y="-101.2" font-family="Courier,monospace" font-size="11.00" fill="#000000">Entry</text>
</g>
<!-- \\Pablotron\\ZipStream\\ZipStream -->
<g id="node17" class="node">
<title>\\Pablotron\\ZipStream\\ZipStream</title>
<polygon fill="none" stroke="#000000" points="436.891,-68 359.891,-68 359.891,-32 436.891,-32 436.891,-68"/>
<text text-anchor="middle" x="398.391" y="-47.2" font-family="Courier,monospace" font-size="11.00" fill="#000000">ZipStream</text>
</g>
</g>
</svg>
